<svg version="1.2" xmlns="http://www.w3.org/2000/svg" viewBox="0 0 300 100" width="300" height="100">
	<style>
		.s0 { fill: #e8a2b0 } 
	</style>
	<path id="Liora" class="s0" aria-label="Liora"  d="m39 8.7v69.5h35.8v15.8h-56.4v-85.3zm64.4 21.9v63.4h-19.8v-63.4zm-21-16.3q0-4.3 3.1-7 3-2.7 7.9-2.7 4.8 0 7.9 2.7 3 2.7 3 7 0 4.2-3 6.9-3.1 2.7-7.9 2.7-4.9 0-7.9-2.7-3.1-2.7-3.1-6.9zm30.7 50.8v-3.4q0-9.5 3.7-16.9 3.7-7.4 10.6-11.4 6.9-4 16.2-4 14.2 0 22.4 8.9 8.2 8.8 8.2 23.9v0.7q0 14.9-8.2 23.6-8.2 8.7-22.3 8.7-13.5 0-21.7-8.1-8.2-8.2-8.9-22zm19.8-5.7l-0.1 3.5q0 8.8 2.8 12.9 2.7 4.1 8.1 4.1 10.6 0 10.8-16.2v-2q0-17-10.9-17-9.9 0-10.7 14.7zm88.4-29.3l-0.4 18.4-6.5-0.5q-9.3 0-11.9 5.9v40.1h-19.8v-63.4h18.5l0.7 8.1q5-9.3 13.9-9.3 3.1 0 5.5 0.7zm60.7 63.9h-19.7q-1.1-1.9-1.9-5.7-5.4 6.9-15.2 6.9-9 0-15.3-5.4-6.2-5.5-6.2-13.7 0-10.3 7.6-15.6 7.6-5.2 22.1-5.2h6.1v-3.4q0-8.7-7.5-8.7-7.1 0-7.1 6.9h-19.7q0-9.2 7.8-14.9 7.8-5.8 20-5.8 12.1 0 19.1 5.9 7.1 6 7.2 16.3v28q0.1 8.8 2.7 13.4zm-32.1-12.9q3.7 0 6.1-1.6 2.5-1.6 3.5-3.5v-10.2h-5.7q-10.3 0-10.3 9.3 0 2.7 1.8 4.4 1.8 1.6 4.6 1.6z"/>
</svg>